<svg width="123" height="123" viewBox="0 0 123 123" fill="none" xmlns="http://www.w3.org/2000/svg">
<g clip-path="url(#clip0)">
<path d="M30 13.21C29.7314 12.7631 29.5544 12.2672 29.4793 11.7512C29.4042 11.2353 29.4325 10.7095 29.5626 10.2046C29.6927 9.69965 29.922 9.22567 30.2371 8.81024C30.5523 8.39481 30.9469 8.04624 31.398 7.78484C31.8492 7.52343 32.3479 7.35442 32.865 7.28764C33.3821 7.22086 33.9074 7.25766 34.4101 7.39588C34.9129 7.53411 35.3831 7.771 35.7934 8.09275C36.2037 8.41451 36.5459 8.8147 36.8 9.27L41.86 18C42.3904 18.9031 42.5404 19.9799 42.2769 20.9935C42.0134 22.0071 41.3581 22.8746 40.455 23.405C39.5519 23.9354 38.4751 24.0854 37.4615 23.8219C36.4479 23.5584 35.5804 22.9031 35.05 22L30 13.21ZM61.45 26.21C69.6 26.2163 77.4957 29.0481 83.792 34.2229C90.0883 39.3978 94.3957 46.5955 95.9804 54.59C97.5651 62.5845 96.3289 70.881 92.4827 78.0663C88.6364 85.2516 82.4178 90.8811 74.8865 93.9958C67.3551 97.1105 58.9768 97.5176 51.179 95.1478C43.3811 92.778 36.646 87.778 32.1212 80.9995C27.5964 74.2209 25.5617 66.0833 26.3638 57.9728C27.1659 49.8624 30.7551 42.2809 36.52 36.52C39.789 33.2429 43.6735 30.6441 47.9501 28.8731C52.2267 27.102 56.8112 26.1936 61.44 26.2L61.45 26.21ZM58.31 4C58.2831 3.46523 58.3651 2.93056 58.5512 2.42849C58.7373 1.92642 59.0236 1.46742 59.3925 1.0794C59.7615 0.691371 60.2055 0.382414 60.6976 0.171299C61.1897 -0.0398166 61.7195 -0.148682 62.255 -0.148682C62.7905 -0.148682 63.3203 -0.0398166 63.8124 0.171299C64.3045 0.382414 64.7485 0.691371 65.1175 1.0794C65.4864 1.46742 65.7727 1.92642 65.9588 2.42849C66.1449 2.93056 66.2269 3.46523 66.2 4V14.06C66.2269 14.5948 66.1449 15.1294 65.9588 15.6315C65.7727 16.1336 65.4864 16.5926 65.1175 16.9806C64.7485 17.3686 64.3045 17.6776 63.8124 17.8887C63.3203 18.0998 62.7905 18.2087 62.255 18.2087C61.7195 18.2087 61.1897 18.0998 60.6976 17.8887C60.2055 17.6776 59.7615 17.3686 59.3925 16.9806C59.0236 16.5926 58.7373 16.1336 58.5512 15.6315C58.3651 15.1294 58.2831 14.5948 58.31 14.06V4ZM87.49 10.1C87.7293 9.62193 88.0636 9.19772 88.4725 8.85331C88.8814 8.5089 89.3563 8.25154 89.8681 8.09697C90.3799 7.94241 90.9178 7.89389 91.449 7.95438C91.9802 8.01488 92.4934 8.18311 92.9574 8.4488C93.4213 8.71448 93.8261 9.07203 94.1471 9.49956C94.4681 9.92709 94.6985 10.4156 94.8242 10.9353C94.9498 11.4549 94.9682 11.9947 94.8781 12.5217C94.7879 13.0486 94.5912 13.5517 94.3 14L89.24 22.76C88.9897 23.2206 88.6498 23.6264 88.2403 23.9537C87.8308 24.2809 87.3599 24.5229 86.8555 24.6654C86.351 24.8079 85.8231 24.8481 85.3029 24.7835C84.7827 24.719 84.2807 24.551 83.8264 24.2895C83.3721 24.028 82.9747 23.6782 82.6576 23.2608C82.3405 22.8434 82.1101 22.3668 81.9799 21.859C81.8498 21.3512 81.8226 20.8225 81.8999 20.304C81.9772 19.7855 82.1574 19.2878 82.43 18.84L87.49 10.09V10.1ZM109.67 30C110.573 29.4775 111.647 29.3352 112.655 29.6043C113.663 29.8734 114.523 30.5319 115.045 31.435C115.567 32.3381 115.71 33.4117 115.441 34.4197C115.172 35.4277 114.513 36.2875 113.61 36.81L104.86 41.87C104.413 42.1326 103.918 42.3046 103.405 42.3762C102.891 42.4477 102.368 42.4174 101.867 42.2869C101.365 42.1564 100.893 41.9284 100.48 41.6158C100.066 41.3032 99.7176 40.9122 99.455 40.465C99.1924 40.0178 99.0204 39.5233 98.9488 39.0097C98.8773 38.4961 98.9076 37.9734 99.0381 37.4715C99.1686 36.9696 99.3966 36.4983 99.7092 36.0846C100.022 35.6708 100.413 35.3226 100.86 35.06L109.67 30ZM118.93 58.32C119.465 58.2931 119.999 58.3751 120.502 58.5612C121.004 58.7473 121.463 59.0336 121.851 59.4025C122.239 59.7715 122.548 60.2155 122.759 60.7076C122.97 61.1997 123.079 61.7295 123.079 62.265C123.079 62.8005 122.97 63.3303 122.759 63.8224C122.548 64.3145 122.239 64.7585 121.851 65.1275C121.463 65.4964 121.004 65.7827 120.502 65.9688C119.999 66.1549 119.465 66.2369 118.93 66.21H108.82C108.285 66.2369 107.751 66.1549 107.248 65.9688C106.746 65.7827 106.287 65.4964 105.899 65.1275C105.511 64.7585 105.202 64.3145 104.991 63.8224C104.78 63.3303 104.671 62.8005 104.671 62.265C104.671 61.7295 104.78 61.1997 104.991 60.7076C105.202 60.2155 105.511 59.7715 105.899 59.4025C106.287 59.0336 106.746 58.7473 107.248 58.5612C107.751 58.3751 108.285 58.2931 108.82 58.32H118.93ZM112.78 87.5C113.251 87.744 113.668 88.0807 114.005 88.49C114.342 88.8993 114.593 89.3727 114.743 89.8816C114.892 90.3904 114.937 90.9243 114.875 91.451C114.813 91.9778 114.645 92.4864 114.38 92.9464C114.116 93.4064 113.762 93.8081 113.338 94.1275C112.915 94.4468 112.431 94.6771 111.916 94.8045C111.401 94.9319 110.866 94.9538 110.343 94.8688C109.819 94.7838 109.318 94.5937 108.87 94.31L100.11 89.25C99.6365 89.0085 99.2168 88.6735 98.8765 88.2651C98.5361 87.8568 98.2822 87.3837 98.13 86.8744C97.9777 86.3651 97.9304 85.8302 97.9909 85.302C98.0513 84.7739 98.2183 84.2636 98.4816 83.8018C98.745 83.3401 99.0993 82.9366 99.5231 82.6157C99.9469 82.2948 100.431 82.0633 100.947 81.935C101.463 81.8068 102 81.7845 102.524 81.8696C103.049 81.9547 103.551 82.1453 104 82.43L112.75 87.49L112.78 87.5ZM92.89 109.67C93.4125 110.573 93.5548 111.647 93.2857 112.655C93.0166 113.663 92.3581 114.523 91.455 115.045C90.5519 115.567 89.4783 115.71 88.4703 115.441C87.4623 115.172 86.6025 114.513 86.08 113.61L81 104.86C80.7374 104.413 80.5654 103.918 80.4938 103.405C80.4223 102.891 80.4526 102.368 80.5831 101.867C80.7136 101.365 80.9416 100.893 81.2542 100.48C81.5668 100.066 81.9578 99.7176 82.405 99.455C83.3081 98.9246 84.3848 98.7746 85.3985 99.0381C85.9004 99.1686 86.3717 99.3966 86.7854 99.7092C87.1992 100.022 87.5474 100.413 87.81 100.86L92.87 109.62L92.89 109.67ZM64.57 118.93C64.5969 119.465 64.5149 119.999 64.3288 120.502C64.1427 121.004 63.8564 121.463 63.4875 121.851C63.1185 122.239 62.6745 122.548 62.1824 122.759C61.6903 122.97 61.1605 123.079 60.625 123.079C60.0895 123.079 59.5597 122.97 59.0676 122.759C58.5755 122.548 58.1315 122.239 57.7625 121.851C57.3936 121.463 57.1073 121.004 56.9212 120.502C56.7351 119.999 56.6531 119.465 56.68 118.93V108.82C56.6531 108.285 56.7351 107.751 56.9212 107.248C57.1073 106.746 57.3936 106.287 57.7625 105.899C58.1315 105.511 58.5755 105.202 59.0676 104.991C59.5597 104.78 60.0895 104.671 60.625 104.671C61.1605 104.671 61.6903 104.78 62.1824 104.991C62.6745 105.202 63.1185 105.511 63.4875 105.899C63.8564 106.287 64.1427 106.746 64.3288 107.248C64.5149 107.751 64.5969 108.285 64.57 108.82V118.93V118.93ZM35.39 112.78C34.8482 113.636 33.9968 114.249 33.0136 114.493C32.0304 114.736 30.9912 114.59 30.1127 114.086C29.2343 113.582 28.5846 112.758 28.299 111.786C28.0134 110.814 28.1141 109.769 28.58 108.87L33.64 100.11C33.8753 99.6262 34.2075 99.1958 34.6159 98.8455C35.0243 98.4953 35.5003 98.2326 36.0144 98.0739C36.5285 97.9151 37.0697 97.8635 37.6045 97.9224C38.1393 97.9814 38.6563 98.1494 39.1235 98.4163C39.5907 98.6832 39.9981 99.0431 40.3205 99.4739C40.6429 99.9046 40.8734 100.397 40.9978 100.92C41.1221 101.444 41.1377 101.987 41.0435 102.517C40.9492 103.047 40.7472 103.552 40.45 104L35.39 112.75V112.78ZM13.21 92.89C12.7629 93.1487 12.2691 93.3168 11.757 93.3847C11.2449 93.4526 10.7244 93.419 10.2253 93.2857C9.72619 93.1524 9.25821 92.9222 8.84808 92.6081C8.43795 92.294 8.09371 91.9022 7.835 91.455C7.5763 91.0079 7.4082 90.5141 7.34031 90.002C7.27241 89.4899 7.30605 88.9694 7.4393 88.4703C7.57255 87.9712 7.80281 87.5032 8.11692 87.0931C8.43103 86.6829 8.82285 86.3387 9.27 86.08L18 81C18.4485 80.7374 18.9443 80.5656 19.4591 80.4946C19.9739 80.4236 20.4977 80.4546 21.0006 80.586C21.5034 80.7174 21.9754 80.9466 22.3897 81.2604C22.804 81.5742 23.1524 81.9665 23.415 82.415C23.6776 82.8635 23.8494 83.3593 23.9204 83.8741C23.9914 84.3889 23.9604 84.9127 23.829 85.4156C23.6976 85.9184 23.4684 86.3904 23.1546 86.8047C22.8408 87.219 22.4485 87.5674 22 87.83L13.24 92.89H13.21ZM4 64.57C3.46523 64.5969 2.93056 64.5149 2.42849 64.3288C1.92642 64.1427 1.46742 63.8564 1.0794 63.4875C0.691371 63.1185 0.382414 62.6745 0.171299 62.1824C-0.0398166 61.6903 -0.148682 61.1605 -0.148682 60.625C-0.148682 60.0895 -0.0398166 59.5597 0.171299 59.0676C0.382414 58.5755 0.691371 58.1315 1.0794 57.7625C1.46742 57.3936 1.92642 57.1073 2.42849 56.9212C2.93056 56.7351 3.46523 56.6531 4 56.68H14.06C14.5948 56.6531 15.1294 56.7351 15.6315 56.9212C16.1336 57.1073 16.5926 57.3936 16.9806 57.7625C17.3686 58.1315 17.6776 58.5755 17.8887 59.0676C18.0998 59.5597 18.2087 60.0895 18.2087 60.625C18.2087 61.1605 18.0998 61.6903 17.8887 62.1824C17.6776 62.6745 17.3686 63.1185 16.9806 63.4875C16.5926 63.8564 16.1336 64.1427 15.6315 64.3288C15.1294 64.5149 14.5948 64.5969 14.06 64.57H4ZM10.1 35.39C9.62193 35.1507 9.19772 34.8164 8.85331 34.4075C8.5089 33.9986 8.25154 33.5237 8.09697 33.0119C7.94241 32.5001 7.89389 31.9622 7.95438 31.431C8.01488 30.8998 8.18311 30.3866 8.4488 29.9226C8.71448 29.4587 9.07203 29.0539 9.49956 28.7329C9.92709 28.4119 10.4156 28.1815 10.9353 28.0558C11.4549 27.9302 11.9947 27.9118 12.5217 28.0019C13.0486 28.0921 13.5517 28.2888 14 28.58L22.76 33.64C23.2206 33.8903 23.6264 34.2302 23.9537 34.6397C24.2809 35.0492 24.5229 35.5201 24.6654 36.0245C24.8079 36.529 24.8481 37.0569 24.7835 37.5771C24.719 38.0973 24.551 38.5993 24.2895 39.0536C24.028 39.5079 23.6782 39.9053 23.2608 40.2224C22.8434 40.5395 22.3668 40.7699 21.859 40.9001C21.3512 41.0302 20.8225 41.0574 20.304 40.9801C19.7855 40.9028 19.2878 40.7226 18.84 40.45L10.1 35.39Z" fill="#CBD6F6"/>
</g>
<defs>
<clipPath id="clip0">
<rect width="122.88" height="122.88" fill="white"/>
</clipPath>
</defs>
</svg>
